<svg xmlns="http://www.w3.org/2000/svg" viewBox="0 0 800 600" role="img" aria-label="PROVES Atlas launch">
  <defs>
    <radialGradient id="earth" cx="50%" cy="120%" r="90%">
      <stop offset="0%" stop-color="rgba(212,27,44,0.35)"/>
      <stop offset="55%" stop-color="rgba(212,27,44,0.10)"/>
      <stop offset="100%" stop-color="transparent"/>
    </radialGradient>
  </defs>
  <rect width="800" height="600" fill="#08080c"/>
  <path d="M0 600 A520 520 0 0 1 800 600 Z" fill="url(#earth)"/>
  <path d="M-20 600 A520 520 0 0 1 820 600" fill="none" stroke="#d41b2c" stroke-width="3" opacity="0.7"/>
  <g fill="rgba(255,255,255,0.9)">
    <circle cx="120" cy="120" r="1.8"/><circle cx="260" cy="80" r="1.2"/><circle cx="420" cy="140" r="1.5"/>
    <circle cx="600" cy="90" r="1.3"/><circle cx="700" cy="180" r="1.7"/><circle cx="150" cy="260" r="1.2"/>
    <circle cx="520" cy="220" r="1.4"/>
  </g>
  <g fill="#d41b2c"><circle cx="330" cy="250" r="4"/><circle cx="410" cy="200" r="4"/><circle cx="500" cy="270" r="4"/><circle cx="360" cy="320" r="4"/><circle cx="470" cy="340" r="4"/></g>
  <g stroke="rgba(212,27,44,0.4)" stroke-width="1.5" fill="none">
    <line x1="330" y1="250" x2="410" y2="200"/><line x1="410" y1="200" x2="500" y2="270"/>
    <line x1="330" y1="250" x2="360" y2="320"/><line x1="500" y1="270" x2="470" y2="340"/><line x1="360" y1="320" x2="470" y2="340"/>
  </g>
  <rect x="48" y="52" width="40" height="3" fill="#d41b2c"/>
  <text x="48" y="90" font-family="monospace" font-size="15" letter-spacing="3" fill="rgba(232,230,225,0.6)">NSL · PROVES ATLAS · APR 2026</text>
</svg>
